<svg width="1280" height="720" xmlns="http://www.w3.org/2000/svg" xmlns:xlink="http://www.w3.org/1999/xlink" overflow="hidden"><defs><clipPath id="clip0"><rect x="0" y="0" width="1280" height="720"/></clipPath><linearGradient x1="640.001" y1="-0.00221575" x2="639.999" y2="720.002" gradientUnits="userSpaceOnUse" spreadMethod="reflect" id="fill1"><stop offset="0" stop-color="#F5F9FC"/><stop offset="0.74" stop-color="#B7D2EA"/><stop offset="0.83" stop-color="#B7D2EA"/><stop offset="1" stop-color="#CEE1F1"/></linearGradient><clipPath id="clip2"><rect x="582" y="113" width="101" height="208"/></clipPath><clipPath id="clip3"><rect x="682" y="113" width="287" height="208"/></clipPath><clipPath id="clip4"><rect x="968" y="113" width="80" height="208"/></clipPath><clipPath id="clip5"><rect x="1047" y="113" width="202" height="208"/></clipPath><clipPath id="clip6"><rect x="582" y="152" width="101" height="207"/></clipPath><clipPath id="clip7"><rect x="682" y="151" width="287" height="208"/></clipPath><clipPath id="clip8"><rect x="968" y="152" width="80" height="207"/></clipPath><clipPath id="clip9"><rect x="1047" y="152" width="202" height="207"/></clipPath><clipPath id="clip10"><rect x="582" y="184" width="101" height="207"/></clipPath><clipPath id="clip11"><rect x="682" y="184" width="287" height="207"/></clipPath><clipPath id="clip12"><rect x="968" y="184" width="80" height="207"/></clipPath><clipPath id="clip13"><rect x="1047" y="184" width="202" height="207"/></clipPath><clipPath id="clip14"><rect x="582" y="214" width="101" height="207"/></clipPath><clipPath id="clip15"><rect x="682" y="213" width="287" height="208"/></clipPath><clipPath id="clip16"><rect x="968" y="214" width="80" height="207"/></clipPath><clipPath id="clip17"><rect x="1047" y="214" width="202" height="207"/></clipPath><clipPath id="clip18"><rect x="582" y="246" width="101" height="208"/></clipPath><clipPath id="clip19"><rect x="682" y="146" width="287" height="443"/></clipPath><clipPath id="clip20"><rect x="682" y="146" width="287" height="443"/></clipPath><clipPath id="clip21"><rect x="968" y="146" width="80" height="443"/></clipPath><clipPath id="clip22"><rect x="1047" y="246" width="202" height="208"/></clipPath><clipPath id="clip23"><rect x="582" y="310" width="101" height="207"/></clipPath><clipPath id="clip24"><rect x="682" y="310" width="287" height="207"/></clipPath><clipPath id="clip25"><rect x="968" y="310" width="80" height="207"/></clipPath><clipPath id="clip26"><rect x="1047" y="310" width="202" height="207"/></clipPath><clipPath id="clip27"><rect x="582" y="348" width="101" height="208"/></clipPath><clipPath id="clip28"><rect x="682" y="348" width="287" height="208"/></clipPath><clipPath id="clip29"><rect x="968" y="348" width="80" height="208"/></clipPath><clipPath id="clip30"><rect x="1047" y="348" width="202" height="208"/></clipPath><clipPath id="clip31"><rect x="582" y="387" width="101" height="207"/></clipPath><clipPath id="clip32"><rect x="682" y="387" width="287" height="208"/></clipPath><clipPath id="clip33"><rect x="968" y="387" width="80" height="207"/></clipPath><clipPath id="clip34"><rect x="1047" y="387" width="202" height="207"/></clipPath><clipPath id="clip35"><rect x="582" y="425" width="101" height="208"/></clipPath><clipPath id="clip36"><rect x="682" y="425" width="287" height="208"/></clipPath><clipPath id="clip37"><rect x="968" y="425" width="80" height="208"/></clipPath><clipPath id="clip38"><rect x="1047" y="425" width="202" height="208"/></clipPath><clipPath id="clip39"><rect x="582" y="464" width="101" height="208"/></clipPath><clipPath id="clip40"><rect x="682" y="363" width="287" height="443"/></clipPath><clipPath id="clip41"><rect x="682" y="363" width="287" height="443"/></clipPath><clipPath id="clip42"><rect x="968" y="464" width="80" height="208"/></clipPath><clipPath id="clip43"><rect x="582" y="530" width="101" height="208"/></clipPath><clipPath id="clip44"><rect x="682" y="530" width="287" height="208"/></clipPath></defs><g clip-path="url(#clip0)"><rect x="0" y="0" width="1280" height="720" fill="url(#fill1)"/><rect x="146.5" y="23.5001" width="988" height="115" stroke="#3F3F3F" stroke-width="3.33333" stroke-linecap="square" stroke-miterlimit="8" fill="#FFFFFF"/><text fill="#262626" font-family="DFKai-SB,DFKai-SB_MSFontService,sans-serif" font-weight="700" font-size="48" transform="translate(424 74)">本學期作業計分說明</text><text font-family="Century Gothic,Century Gothic_MSFontService,sans-serif" font-weight="700" font-size="33" transform="translate(573.667 125)">Grading</text><text font-family="Arial,Arial_MSFontService,sans-serif" font-weight="400" font-size="32" transform="translate(55.0556 238)">•</text><text font-family="Microsoft JhengHei,Microsoft JhengHei_MSFontService,sans-serif" font-weight="400" font-size="32" transform="translate(85.0556 238)">本學期所有作業內容均在幫各位同</text><text font-family="Microsoft JhengHei,Microsoft JhengHei_MSFontService,sans-serif" font-weight="400" font-size="32" transform="translate(85.0556 276)">學逐步建立期末元宇宙暨虛擬實境</text><text font-family="Microsoft JhengHei,Microsoft JhengHei_MSFontService,sans-serif" font-weight="400" font-size="32" transform="translate(85.0556 315)">展演計畫，可以提早完成，但請按</text><text font-family="Microsoft JhengHei,Microsoft JhengHei_MSFontService,sans-serif" font-weight="400" font-size="32" transform="translate(85.0556 353)">時繳交。若確實有困難，請盡快與</text><text font-family="Microsoft JhengHei,Microsoft JhengHei_MSFontService,sans-serif" font-weight="400" font-size="32" transform="translate(85.0556 392)">老師商量。</text><text font-family="Arial,Arial_MSFontService,sans-serif" font-weight="400" font-size="32" transform="translate(55.0556 430)">•</text><text font-family="Microsoft JhengHei,Microsoft JhengHei_MSFontService,sans-serif" font-weight="400" font-size="32" transform="translate(85.0556 430)">透過數位故事講述，讓同學學習獨</text><text font-family="Microsoft JhengHei,Microsoft JhengHei_MSFontService,sans-serif" font-weight="400" font-size="32" transform="translate(85.0556 468)">立思考、合作對話、多媒體表達技</text><text font-family="Microsoft JhengHei,Microsoft JhengHei_MSFontService,sans-serif" font-weight="400" font-size="32" transform="translate(85.0556 507)">巧、解決問題的能力、探索新科技</text><text font-family="Microsoft JhengHei,Microsoft JhengHei_MSFontService,sans-serif" font-weight="400" font-size="32" transform="translate(85.0556 545)">與自我的關係、科技與社會的關係，</text><text font-family="Microsoft JhengHei,Microsoft JhengHei_MSFontService,sans-serif" font-weight="400" font-size="32" transform="translate(85.0556 584)">在場域與學校中體會與執行創新與</text><text font-family="Microsoft JhengHei,Microsoft JhengHei_MSFontService,sans-serif" font-weight="400" font-size="32" transform="translate(85.0556 622)">實踐，素養與培力。</text><text font-family="Arial,Arial_MSFontService,sans-serif" font-weight="400" font-size="32" transform="translate(55.0556 661)">•</text><text font-family="Microsoft JhengHei,Microsoft JhengHei_MSFontService,sans-serif" font-weight="700" font-size="32" transform="translate(85.0556 661)">展演空間：</text><text font-family="Century Gothic,Century Gothic_MSFontService,sans-serif" font-weight="400" font-size="32" transform="translate(245.056 661)">Mozilla Hubs</text><text font-family="Arial,Arial_MSFontService,sans-serif" font-weight="400" font-size="32" transform="translate(55.0556 699)">•</text><text font-family="Microsoft JhengHei,Microsoft JhengHei_MSFontService,sans-serif" font-weight="700" font-size="32" transform="translate(85.0556 699)">工具：</text><text font-family="Century Gothic,Century Gothic_MSFontService,sans-serif" font-weight="400" font-size="32" transform="translate(181.056 699)">Spoke</text><path d="M582 202.028 682.137 202.028 682.137 240.601 582 240.601Z" fill="#4A66AC" fill-rule="evenodd"/><path d="M682.137 202.028 968.937 202.028 968.937 240.601 682.137 240.601Z" fill="#4A66AC" fill-rule="evenodd"/><path d="M968.937 202.028 1047.64 202.028 1047.64 240.601 968.937 240.601Z" fill="#4A66AC" fill-rule="evenodd"/><path d="M1047.64 202.028 1248.91 202.028 1248.91 240.601 1047.64 240.601Z" fill="#4A66AC" fill-rule="evenodd"/><path d="M582 240.601 682.137 240.601 682.137 272.729 582 272.729Z" fill="#4A66AC" fill-rule="evenodd"/><path d="M682.137 240.601 968.937 240.601 968.937 272.729 682.137 272.729Z" fill="#CED2E2" fill-rule="evenodd"/><path d="M968.937 240.601 1047.64 240.601 1047.64 272.729 968.937 272.729Z" fill="#CED2E2" fill-rule="evenodd"/><path d="M1047.64 240.601 1248.91 240.601 1248.91 272.729 1047.64 272.729Z" fill="#CED2E2" fill-rule="evenodd"/><path d="M582 272.729 682.137 272.729 682.137 302.627 582 302.627Z" fill="#4A66AC" fill-rule="evenodd"/><path d="M682.137 272.729 968.937 272.729 968.937 302.627 682.137 302.627Z" fill="#E8EAF1" fill-rule="evenodd"/><path d="M968.937 272.729 1047.64 272.729 1047.64 302.627 968.937 302.627Z" fill="#E8EAF1" fill-rule="evenodd"/><path d="M1047.64 272.729 1248.91 272.729 1248.91 302.627 1047.64 302.627Z" fill="#E8EAF1" fill-rule="evenodd"/><path d="M582 302.627 682.137 302.627 682.137 335.54 582 335.54Z" fill="#4A66AC" fill-rule="evenodd"/><path d="M682.137 302.627 968.937 302.627 968.937 335.54 682.137 335.54Z" fill="#CED2E2" fill-rule="evenodd"/><path d="M968.937 302.627 1047.64 302.627 1047.64 335.54 968.937 335.54Z" fill="#CED2E2" fill-rule="evenodd"/><path d="M1047.64 302.627 1248.91 302.627 1248.91 335.54 1047.64 335.54Z" fill="#CED2E2" fill-rule="evenodd"/><path d="M582 335.54 682.137 335.54 682.137 398.7 582 398.7Z" fill="#4A66AC" fill-rule="evenodd"/><path d="M682.137 335.54 968.937 335.54 968.937 398.7 682.137 398.7Z" fill="#E8EAF1" fill-rule="evenodd"/><path d="M968.937 335.54 1047.64 335.54 1047.64 398.7 968.937 398.7Z" fill="#E8EAF1" fill-rule="evenodd"/><path d="M1047.64 335.54 1248.91 335.54 1248.91 398.7 1047.64 398.7Z" fill="#E8EAF1" fill-rule="evenodd"/><path d="M582 398.7 682.137 398.7 682.137 437.272 582 437.272Z" fill="#4A66AC" fill-rule="evenodd"/><path d="M682.137 398.7 968.937 398.7 968.937 437.272 682.137 437.272Z" fill="#CED2E2" fill-rule="evenodd"/><path d="M968.937 398.7 1047.64 398.7 1047.64 437.272 968.937 437.272Z" fill="#CED2E2" fill-rule="evenodd"/><path d="M1047.64 398.7 1248.91 398.7 1248.91 437.272 1047.64 437.272Z" fill="#CED2E2" fill-rule="evenodd"/><path d="M582 437.272 682.137 437.272 682.137 475.845 582 475.845Z" fill="#4A66AC" fill-rule="evenodd"/><path d="M682.137 437.272 968.937 437.272 968.937 475.845 682.137 475.845Z" fill="#E8EAF1" fill-rule="evenodd"/><path d="M968.937 437.272 1047.64 437.272 1047.64 475.845 968.937 475.845Z" fill="#E8EAF1" fill-rule="evenodd"/><path d="M1047.64 437.272 1248.91 437.272 1248.91 475.845 1047.64 475.845Z" fill="#E8EAF1" fill-rule="evenodd"/><path d="M582 475.845 682.137 475.845 682.137 514.417 582 514.417Z" fill="#4A66AC" fill-rule="evenodd"/><path d="M682.137 475.845 968.937 475.845 968.937 514.417 682.137 514.417Z" fill="#CED2E2" fill-rule="evenodd"/><path d="M968.937 475.845 1047.64 475.845 1047.64 514.417 968.937 514.417Z" fill="#CED2E2" fill-rule="evenodd"/><path d="M1047.64 475.845 1248.91 475.845 1248.91 514.417 1047.64 514.417Z" fill="#CED2E2" fill-rule="evenodd"/><path d="M582 514.417 682.137 514.417 682.137 552.989 582 552.989Z" fill="#4A66AC" fill-rule="evenodd"/><path d="M682.137 514.417 968.937 514.417 968.937 552.989 682.137 552.989Z" fill="#E8EAF1" fill-rule="evenodd"/><path d="M968.937 514.417 1047.64 514.417 1047.64 552.989 968.937 552.989Z" fill="#E8EAF1" fill-rule="evenodd"/><path d="M1047.64 514.417 1248.91 514.417 1248.91 552.989 1047.64 552.989Z" fill="#E8EAF1" fill-rule="evenodd"/><path d="M582 552.989 682.137 552.989 682.137 619.039 582 619.039Z" fill="#4A66AC" fill-rule="evenodd"/><path d="M682.137 552.989 968.937 552.989 968.937 619.039 682.137 619.039Z" fill="#CED2E2" fill-rule="evenodd"/><path d="M968.937 552.989 1047.64 552.989 1047.64 619.039 968.937 619.039Z" fill="#CED2E2" fill-rule="evenodd"/><path d="M1047.64 552.989 1248.91 552.989 1248.91 619.039 1047.64 619.039Z" fill="#CED2E2" fill-rule="evenodd"/><path d="M582 619.039 682.137 619.039 682.137 656.561 582 656.561Z" fill="#4A66AC" fill-rule="evenodd"/><path d="M682.137 619.039 968.937 619.039 968.937 656.561 682.137 656.561Z" fill="#E8EAF1" fill-rule="evenodd"/><path d="M968.937 619.039 1047.64 619.039 1047.64 656.561 968.937 656.561Z" fill="#E8EAF1" fill-rule="evenodd"/><path d="M1047.64 619.039 1248.91 619.039 1248.91 656.561 1047.64 656.561Z" fill="#E8EAF1" fill-rule="evenodd"/><path d="M682.137 201.362 682.137 657.228" stroke="#FFFFFF" stroke-width="1.33333" stroke-linejoin="round" stroke-miterlimit="10" fill="none" fill-rule="evenodd"/><path d="M968.937 201.362 968.937 657.228" stroke="#FFFFFF" stroke-width="1.33333" stroke-linejoin="round" stroke-miterlimit="10" fill="none" fill-rule="evenodd"/><path d="M1047.64 201.362 1047.64 657.228" stroke="#FFFFFF" stroke-width="1.33333" stroke-linejoin="round" stroke-miterlimit="10" fill="none" fill-rule="evenodd"/><path d="M581.333 240.601 1249.58 240.601" stroke="#FFFFFF" stroke-width="4" stroke-linejoin="round" stroke-miterlimit="10" fill="none" fill-rule="evenodd"/><path d="M581.333 272.729 1249.58 272.729" stroke="#FFFFFF" stroke-width="1.33333" stroke-linejoin="round" stroke-miterlimit="10" fill="none" fill-rule="evenodd"/><path d="M581.333 302.627 1249.58 302.627" stroke="#FFFFFF" stroke-width="1.33333" stroke-linejoin="round" stroke-miterlimit="10" fill="none" fill-rule="evenodd"/><path d="M581.333 335.54 1249.58 335.54" stroke="#FFFFFF" stroke-width="1.33333" stroke-linejoin="round" stroke-miterlimit="10" fill="none" fill-rule="evenodd"/><path d="M581.333 398.7 1249.58 398.7" stroke="#FFFFFF" stroke-width="1.33333" stroke-linejoin="round" stroke-miterlimit="10" fill="none" fill-rule="evenodd"/><path d="M581.333 437.272 1249.58 437.272" stroke="#FFFFFF" stroke-width="1.33333" stroke-linejoin="round" stroke-miterlimit="10" fill="none" fill-rule="evenodd"/><path d="M581.333 475.845 1249.58 475.845" stroke="#FFFFFF" stroke-width="1.33333" stroke-linejoin="round" stroke-miterlimit="10" fill="none" fill-rule="evenodd"/><path d="M581.333 514.417 1249.58 514.417" stroke="#FFFFFF" stroke-width="1.33333" stroke-linejoin="round" stroke-miterlimit="10" fill="none" fill-rule="evenodd"/><path d="M581.333 552.989 1249.58 552.989" stroke="#FFFFFF" stroke-width="1.33333" stroke-linejoin="round" stroke-miterlimit="10" fill="none" fill-rule="evenodd"/><path d="M581.333 619.039 1249.58 619.039" stroke="#FFFFFF" stroke-width="1.33333" stroke-linejoin="round" stroke-miterlimit="10" fill="none" fill-rule="evenodd"/><path d="M582 201.362 582 657.228" stroke="#FFFFFF" stroke-width="1.33333" stroke-linejoin="round" stroke-miterlimit="10" fill="none" fill-rule="evenodd"/><path d="M1248.91 201.362 1248.91 657.228" stroke="#FFFFFF" stroke-width="1.33333" stroke-linejoin="round" stroke-miterlimit="10" fill="none" fill-rule="evenodd"/><path d="M581.333 202.028 1249.58 202.028" stroke="#FFFFFF" stroke-width="1.33333" stroke-linejoin="round" stroke-miterlimit="10" fill="none" fill-rule="evenodd"/><path d="M581.333 656.561 1249.58 656.561" stroke="#FFFFFF" stroke-width="1.33333" stroke-linejoin="round" stroke-miterlimit="10" fill="none" fill-rule="evenodd"/><g clip-path="url(#clip2)"><text fill="#FFFFFF" font-family="Microsoft JhengHei,Microsoft JhengHei_MSFontService,sans-serif" font-weight="700" font-size="19" transform="translate(587.551 227)">週次</text></g><g clip-path="url(#clip3)"><text fill="#FFFFFF" font-family="Microsoft JhengHei,Microsoft JhengHei_MSFontService,sans-serif" font-weight="700" font-size="19" transform="translate(687.688 227)">作業</text></g><g clip-path="url(#clip4)"><text fill="#FFFFFF" font-family="Microsoft JhengHei,Microsoft JhengHei_MSFontService,sans-serif" font-weight="700" font-size="19" transform="translate(974.488 227)">比例</text></g><g clip-path="url(#clip5)"><text fill="#FFFFFF" font-family="Microsoft JhengHei,Microsoft JhengHei_MSFontService,sans-serif" font-weight="700" font-size="19" transform="translate(1053.19 227)">繳交期限</text></g><g clip-path="url(#clip6)"><text fill="#FFFFFF" font-family="Century Gothic,Century Gothic_MSFontService,sans-serif" font-weight="700" font-size="19" transform="translate(587.551 266)">W1</text></g><g clip-path="url(#clip7)"><text font-family="Microsoft JhengHei,Microsoft JhengHei_MSFontService,sans-serif" font-weight="400" font-size="19" transform="translate(687.688 266)">好與壞故事清單（個人作業）</text></g><g clip-path="url(#clip8)"><text font-family="Century Gothic,Century Gothic_MSFontService,sans-serif" font-weight="400" font-size="19" transform="translate(974.488 266)">5%</text></g><g clip-path="url(#clip9)"><text font-family="Microsoft JhengHei,Microsoft JhengHei_MSFontService,sans-serif" font-weight="400" font-size="19" transform="translate(1053.19 266)">該週六</text></g><text font-family="Century Gothic,Century Gothic_MSFontService,sans-serif" font-weight="400" font-size="19" transform="translate(1109.19 266)">2/25</text><text font-family="Microsoft JhengHei,Microsoft JhengHei_MSFontService,sans-serif" font-weight="400" font-size="19" transform="translate(1148.36 266)">，</text><text font-family="Century Gothic,Century Gothic_MSFontService,sans-serif" font-weight="400" font-size="19" transform="translate(1167.02 266)">21:00</text><g clip-path="url(#clip10)"><text fill="#FFFFFF" font-family="Century Gothic,Century Gothic_MSFontService,sans-serif" font-weight="700" font-size="19" transform="translate(587.551 298)">W5</text></g><g clip-path="url(#clip11)"><text font-family="Microsoft JhengHei,Microsoft JhengHei_MSFontService,sans-serif" font-weight="400" font-size="19" transform="translate(687.688 298)">概念圖（小組作業）</text></g><g clip-path="url(#clip12)"><text font-family="Century Gothic,Century Gothic_MSFontService,sans-serif" font-weight="400" font-size="19" transform="translate(974.488 298)">10%</text></g><g clip-path="url(#clip13)"><text font-family="Microsoft JhengHei,Microsoft JhengHei_MSFontService,sans-serif" font-weight="400" font-size="19" transform="translate(1053.19 298)">上課當天</text></g><text font-family="Century Gothic,Century Gothic_MSFontService,sans-serif" font-weight="400" font-size="19" transform="translate(1127.86 298)">3/20</text><text font-family="Microsoft JhengHei,Microsoft JhengHei_MSFontService,sans-serif" font-weight="400" font-size="19" transform="translate(1167.02 298)">，</text><text font-family="Century Gothic,Century Gothic_MSFontService,sans-serif" font-weight="400" font-size="19" transform="translate(1185.69 298)">13:00</text><g clip-path="url(#clip14)"><text fill="#FFFFFF" font-family="Century Gothic,Century Gothic_MSFontService,sans-serif" font-weight="700" font-size="19" transform="translate(587.551 328)">W8</text></g><g clip-path="url(#clip15)"><text font-family="Microsoft JhengHei,Microsoft JhengHei_MSFontService,sans-serif" font-weight="400" font-size="19" transform="translate(687.688 328)">故事文稿（小組作業）</text></g><g clip-path="url(#clip16)"><text font-family="Century Gothic,Century Gothic_MSFontService,sans-serif" font-weight="400" font-size="19" transform="translate(974.488 328)">10%</text></g><g clip-path="url(#clip17)"><text font-family="Microsoft JhengHei,Microsoft JhengHei_MSFontService,sans-serif" font-weight="400" font-size="19" transform="translate(1053.19 328)">上課當天</text></g><text font-family="Century Gothic,Century Gothic_MSFontService,sans-serif" font-weight="400" font-size="19" transform="translate(1127.86 328)">4/10</text><text font-family="Microsoft JhengHei,Microsoft JhengHei_MSFontService,sans-serif" font-weight="400" font-size="19" transform="translate(1167.02 328)">，</text><text font-family="Century Gothic,Century Gothic_MSFontService,sans-serif" font-weight="400" font-size="19" transform="translate(1185.69 328)">13:00</text><g clip-path="url(#clip18)"><text fill="#FFFFFF" font-family="Century Gothic,Century Gothic_MSFontService,sans-serif" font-weight="700" font-size="19" transform="translate(587.551 361)">W9</text></g><g clip-path="url(#clip19)"><text font-family="Microsoft JhengHei,Microsoft JhengHei_MSFontService,sans-serif" font-weight="400" font-size="19" transform="translate(687.688 361)">分鏡故事板、拍攝執行計畫（小</text></g><g clip-path="url(#clip20)"><text font-family="Microsoft JhengHei,Microsoft JhengHei_MSFontService,sans-serif" font-weight="400" font-size="19" transform="translate(687.688 395)">組作業）</text></g><g clip-path="url(#clip21)"><text font-family="Century Gothic,Century Gothic_MSFontService,sans-serif" font-weight="400" font-size="19" transform="translate(974.488 361)">5%+5%</text></g><g clip-path="url(#clip22)"><text font-family="Microsoft JhengHei,Microsoft JhengHei_MSFontService,sans-serif" font-weight="400" font-size="19" transform="translate(1053.19 361)">上課當天</text></g><text font-family="Century Gothic,Century Gothic_MSFontService,sans-serif" font-weight="400" font-size="19" transform="translate(1127.86 361)">4/17</text><text font-family="Microsoft JhengHei,Microsoft JhengHei_MSFontService,sans-serif" font-weight="400" font-size="19" transform="translate(1167.02 361)">，</text><text font-family="Century Gothic,Century Gothic_MSFontService,sans-serif" font-weight="400" font-size="19" transform="translate(1185.69 361)">13:00</text><g clip-path="url(#clip23)"><text fill="#FFFFFF" font-family="Century Gothic,Century Gothic_MSFontService,sans-serif" font-weight="700" font-size="19" transform="translate(587.551 424)">W13</text></g><g clip-path="url(#clip24)"><text font-family="Microsoft JhengHei,Microsoft JhengHei_MSFontService,sans-serif" font-weight="400" font-size="19" transform="translate(687.688 424)">拍攝檔案（小組作業）</text></g><g clip-path="url(#clip25)"><text font-family="Century Gothic,Century Gothic_MSFontService,sans-serif" font-weight="400" font-size="19" transform="translate(974.488 424)">10%</text></g><g clip-path="url(#clip26)"><text fill="#FF0000" font-family="Microsoft JhengHei,Microsoft JhengHei_MSFontService,sans-serif" font-weight="400" font-size="19" transform="translate(1053.19 424)">上課當天</text></g><text fill="#FF0000" font-family="Century Gothic,Century Gothic_MSFontService,sans-serif" font-weight="400" font-size="19" transform="translate(1127.86 424)">5/</text><text fill="#FF0000" font-family="Century Gothic,Century Gothic_MSFontService,sans-serif" font-weight="400" font-size="19" transform="translate(1146.36 424)">15</text><text fill="#FF0000" font-family="Microsoft JhengHei,Microsoft JhengHei_MSFontService,sans-serif" font-weight="400" font-size="19" transform="translate(1167.02 424)">，</text><text fill="#FF0000" font-family="Century Gothic,Century Gothic_MSFontService,sans-serif" font-weight="400" font-size="19" transform="translate(1185.69 424)">13:00</text><g clip-path="url(#clip27)"><text fill="#FFFFFF" font-family="Century Gothic,Century Gothic_MSFontService,sans-serif" font-weight="700" font-size="19" transform="translate(587.551 462)">W14</text></g><g clip-path="url(#clip28)"><text font-family="Microsoft JhengHei,Microsoft JhengHei_MSFontService,sans-serif" font-weight="400" font-size="19" transform="translate(687.688 462)">拍攝過程的反思（個人作業）</text></g><g clip-path="url(#clip29)"><text font-family="Century Gothic,Century Gothic_MSFontService,sans-serif" font-weight="400" font-size="19" transform="translate(974.488 462)">10%</text></g><g clip-path="url(#clip30)"><text font-family="Microsoft JhengHei,Microsoft JhengHei_MSFontService,sans-serif" font-weight="400" font-size="19" transform="translate(1053.19 462)">該週六</text></g><text font-family="Century Gothic,Century Gothic_MSFontService,sans-serif" font-weight="400" font-size="19" transform="translate(1109.19 462)">5/27</text><text font-family="Microsoft JhengHei,Microsoft JhengHei_MSFontService,sans-serif" font-weight="400" font-size="19" transform="translate(1148.36 462)">，</text><text font-family="Century Gothic,Century Gothic_MSFontService,sans-serif" font-weight="400" font-size="19" transform="translate(1167.02 462)">21:00</text><g clip-path="url(#clip31)"><text fill="#FFFFFF" font-family="Century Gothic,Century Gothic_MSFontService,sans-serif" font-weight="700" font-size="19" transform="translate(587.551 501)">W15</text></g><g clip-path="url(#clip32)"><text font-family="Microsoft JhengHei,Microsoft JhengHei_MSFontService,sans-serif" font-weight="400" font-size="19" transform="translate(687.688 501)">執行過程的反思（個人作業）</text></g><g clip-path="url(#clip33)"><text font-family="Century Gothic,Century Gothic_MSFontService,sans-serif" font-weight="400" font-size="19" transform="translate(974.488 501)">10%</text></g><g clip-path="url(#clip34)"><text font-family="Microsoft JhengHei,Microsoft JhengHei_MSFontService,sans-serif" font-weight="400" font-size="19" transform="translate(1053.19 501)">該週六</text></g><text font-family="Century Gothic,Century Gothic_MSFontService,sans-serif" font-weight="400" font-size="19" transform="translate(1109.19 501)">6/3</text><text font-family="Microsoft JhengHei,Microsoft JhengHei_MSFontService,sans-serif" font-weight="400" font-size="19" transform="translate(1138.02 501)">，</text><text font-family="Century Gothic,Century Gothic_MSFontService,sans-serif" font-weight="400" font-size="19" transform="translate(1156.69 501)">21:00</text><g clip-path="url(#clip35)"><text fill="#FFFFFF" font-family="Century Gothic,Century Gothic_MSFontService,sans-serif" font-weight="700" font-size="19" transform="translate(587.551 539)">W16</text></g><g clip-path="url(#clip36)"><text font-family="Microsoft JhengHei,Microsoft JhengHei_MSFontService,sans-serif" font-weight="400" font-size="19" transform="translate(687.688 539)">八組上傳最後成品（小組作業）</text></g><g clip-path="url(#clip37)"><text font-family="Century Gothic,Century Gothic_MSFontService,sans-serif" font-weight="400" font-size="19" transform="translate(974.488 539)">25%</text></g><g clip-path="url(#clip38)"><text font-family="Microsoft JhengHei,Microsoft JhengHei_MSFontService,sans-serif" font-weight="400" font-size="19" transform="translate(1053.19 539)">上課當天</text></g><text font-family="Century Gothic,Century Gothic_MSFontService,sans-serif" font-weight="400" font-size="19" transform="translate(1127.86 539)">6/5</text><text font-family="Microsoft JhengHei,Microsoft JhengHei_MSFontService,sans-serif" font-weight="400" font-size="19" transform="translate(1156.69 539)">，</text><text font-family="Century Gothic,Century Gothic_MSFontService,sans-serif" font-weight="400" font-size="19" transform="translate(1175.36 539)">13:00</text><g clip-path="url(#clip39)"><text fill="#FFFFFF" font-family="Century Gothic,Century Gothic_MSFontService,sans-serif" font-weight="700" font-size="19" transform="translate(587.551 578)">All weeks</text></g><g clip-path="url(#clip40)"><text font-family="Microsoft JhengHei,Microsoft JhengHei_MSFontService,sans-serif" font-weight="400" font-size="19" transform="translate(687.688 578)">上課參與歷程：</text></g><text font-family="Century Gothic,Century Gothic_MSFontService,sans-serif" font-weight="400" font-size="19" transform="translate(818.354 578)">G</text><text font-family="Century Gothic,Century Gothic_MSFontService,sans-serif" font-weight="400" font-size="19" transform="translate(834.688 578)">-</text><text font-family="Century Gothic,Century Gothic_MSFontService,sans-serif" font-weight="400" font-size="19" transform="translate(840.854 578)">jamboard</text><text font-family="Microsoft JhengHei,Microsoft JhengHei_MSFontService,sans-serif" font-weight="400" font-size="19" transform="translate(931.188 578)">、</text><g clip-path="url(#clip41)"><text font-family="Century Gothic,Century Gothic_MSFontService,sans-serif" font-weight="400" font-size="19" transform="translate(687.688 612)">G</text></g><text font-family="Century Gothic,Century Gothic_MSFontService,sans-serif" font-weight="400" font-size="19" transform="translate(704.021 612)">-</text><text font-family="Century Gothic,Century Gothic_MSFontService,sans-serif" font-weight="400" font-size="19" transform="translate(710.188 612)">doc</text><text font-family="Microsoft JhengHei,Microsoft JhengHei_MSFontService,sans-serif" font-weight="400" font-size="19" transform="translate(747.188 612)">評論互動度</text><g clip-path="url(#clip42)"><text font-family="Century Gothic,Century Gothic_MSFontService,sans-serif" font-weight="400" font-size="19" transform="translate(974.488 578)">10%</text></g><g clip-path="url(#clip43)"><text fill="#FFFFFF" font-family="Century Gothic,Century Gothic_MSFontService,sans-serif" font-weight="700" font-size="19" transform="translate(587.551 644)">All weeks</text></g><g clip-path="url(#clip44)"><text font-family="Microsoft JhengHei,Microsoft JhengHei_MSFontService,sans-serif" font-weight="400" font-size="19" transform="translate(687.688 644)">加分：上課發言、週筆記</text></g></g></svg>