<svg width="1280" height="720" xmlns="http://www.w3.org/2000/svg" xmlns:xlink="http://www.w3.org/1999/xlink" overflow="hidden"><defs><clipPath id="clip0"><rect x="0" y="0" width="1280" height="720"/></clipPath><linearGradient x1="640" y1="0" x2="640" y2="720" gradientUnits="userSpaceOnUse" spreadMethod="reflect" id="fill1"><stop offset="0" stop-color="#FAF9F7"/><stop offset="0.74" stop-color="#D5CBBB"/><stop offset="0.83" stop-color="#D5CBBB"/><stop offset="1" stop-color="#E2DCD1"/></linearGradient><clipPath id="clip2"><rect x="38" y="33" width="286" height="203"/></clipPath><clipPath id="clip3"><rect x="323" y="33" width="924" height="203"/></clipPath><clipPath id="clip4"><rect x="38" y="-15" width="286" height="404"/></clipPath><clipPath id="clip5"><rect x="38" y="-15" width="286" height="404"/></clipPath><clipPath id="clip6"><rect x="323" y="-15" width="924" height="404"/></clipPath><clipPath id="clip7"><rect x="323" y="-15" width="924" height="404"/></clipPath><clipPath id="clip8"><rect x="38" y="-18" width="286" height="606"/></clipPath><clipPath id="clip9"><rect x="38" y="-18" width="286" height="606"/></clipPath><clipPath id="clip10"><rect x="38" y="-18" width="286" height="606"/></clipPath><clipPath id="clip11"><rect x="323" y="-104" width="924" height="807"/></clipPath><clipPath id="clip12"><rect x="323" y="-104" width="924" height="807"/></clipPath><clipPath id="clip13"><rect x="323" y="-104" width="924" height="807"/></clipPath><clipPath id="clip14"><rect x="323" y="-104" width="924" height="807"/></clipPath><clipPath id="clip15"><rect x="38" y="202" width="286" height="404"/></clipPath><clipPath id="clip16"><rect x="38" y="202" width="286" height="404"/></clipPath><clipPath id="clip17"><rect x="323" y="29" width="924" height="808"/></clipPath><clipPath id="clip18"><rect x="323" y="29" width="924" height="808"/></clipPath><clipPath id="clip19"><rect x="323" y="29" width="924" height="808"/></clipPath><clipPath id="clip20"><rect x="323" y="29" width="924" height="808"/></clipPath><clipPath id="clip21"><rect x="38" y="327" width="286" height="404"/></clipPath><clipPath id="clip22"><rect x="38" y="327" width="286" height="404"/></clipPath><clipPath id="clip23"><rect x="323" y="240" width="924" height="606"/></clipPath><clipPath id="clip24"><rect x="323" y="240" width="924" height="606"/></clipPath><clipPath id="clip25"><rect x="323" y="240" width="924" height="606"/></clipPath><clipPath id="clip26"><rect x="38" y="435" width="286" height="404"/></clipPath><clipPath id="clip27"><rect x="38" y="435" width="286" height="404"/></clipPath><clipPath id="clip28"><rect x="323" y="435" width="924" height="404"/></clipPath><clipPath id="clip29"><rect x="323" y="435" width="924" height="404"/></clipPath></defs><g clip-path="url(#clip0)"><rect x="0" y="0" width="1280" height="720" fill="url(#fill1)"/><rect x="0" y="672" width="1280" height="48" fill="#9B2D1F"/><rect x="0" y="665" width="1280" height="7" fill="#D34817"/><path d="M38.4 115.2 323.539 115.2 323.539 153.601 38.4 153.601Z" fill="#A28E6A" fill-rule="evenodd"/><path d="M323.539 115.2 1246.4 115.2 1246.4 153.601 323.539 153.601Z" fill="#A28E6A" fill-rule="evenodd"/><path d="M38.4 153.601 323.539 153.601 323.539 236.856 38.4 236.856Z" fill="#CBD7EF" fill-rule="evenodd"/><path d="M323.539 153.601 1246.4 153.601 1246.4 236.856 323.539 236.856Z" fill="#CBD7EF" fill-rule="evenodd"/><path d="M38.4 236.856 323.539 236.856 323.539 370.588 38.4 370.588Z" fill="#E7ECF7" fill-rule="evenodd"/><path d="M323.539 236.856 1246.4 236.856 1246.4 370.588 323.539 370.588Z" fill="#E7ECF7" fill-rule="evenodd"/><path d="M38.4 370.588 323.539 370.588 323.539 495.389 38.4 495.389Z" fill="#CBD7EF" fill-rule="evenodd"/><path d="M323.539 370.588 1246.4 370.588 1246.4 495.389 323.539 495.389Z" fill="#CBD7EF" fill-rule="evenodd"/><path d="M38.4 495.389 323.539 495.389 323.539 603.62 38.4 603.62Z" fill="#E7ECF7" fill-rule="evenodd"/><path d="M323.539 495.389 1246.4 495.389 1246.4 603.62 323.539 603.62Z" fill="#E7ECF7" fill-rule="evenodd"/><path d="M38.4 603.62 323.539 603.62 323.539 670.821 38.4 670.821Z" fill="#CBD7EF" fill-rule="evenodd"/><path d="M323.539 603.62 1246.4 603.62 1246.4 670.821 323.539 670.821Z" fill="#CBD7EF" fill-rule="evenodd"/><path d="M323.539 114.533 323.539 671.488" stroke="#FFFFFF" stroke-width="1.33333" stroke-linejoin="round" stroke-miterlimit="10" fill="none" fill-rule="evenodd"/><path d="M37.7333 153.601 1247.07 153.601" stroke="#FFFFFF" stroke-width="4" stroke-linejoin="round" stroke-miterlimit="10" fill="none" fill-rule="evenodd"/><path d="M37.7333 236.856 1247.07 236.856" stroke="#FFFFFF" stroke-width="1.33333" stroke-linejoin="round" stroke-miterlimit="10" fill="none" fill-rule="evenodd"/><path d="M37.7333 370.588 1247.07 370.588" stroke="#FFFFFF" stroke-width="1.33333" stroke-linejoin="round" stroke-miterlimit="10" fill="none" fill-rule="evenodd"/><path d="M37.7333 495.389 1247.07 495.389" stroke="#FFFFFF" stroke-width="1.33333" stroke-linejoin="round" stroke-miterlimit="10" fill="none" fill-rule="evenodd"/><path d="M37.7333 603.62 1247.07 603.62" stroke="#FFFFFF" stroke-width="1.33333" stroke-linejoin="round" stroke-miterlimit="10" fill="none" fill-rule="evenodd"/><path d="M38.4 114.533 38.4 671.488" stroke="#FFFFFF" stroke-width="1.33333" stroke-linejoin="round" stroke-miterlimit="10" fill="none" fill-rule="evenodd"/><path d="M1246.4 114.533 1246.4 671.488" stroke="#FFFFFF" stroke-width="1.33333" stroke-linejoin="round" stroke-miterlimit="10" fill="none" fill-rule="evenodd"/><path d="M37.7333 115.2 1247.07 115.2" stroke="#FFFFFF" stroke-width="1.33333" stroke-linejoin="round" stroke-miterlimit="10" fill="none" fill-rule="evenodd"/><path d="M37.7333 670.821 1247.07 670.821" stroke="#FFFFFF" stroke-width="1.33333" stroke-linejoin="round" stroke-miterlimit="10" fill="none" fill-rule="evenodd"/><g clip-path="url(#clip2)"><text fill="#FFFFFF" font-family="Microsoft JhengHei,Microsoft JhengHei_MSFontService,sans-serif" font-weight="700" font-size="24" transform="translate(48.001 143)">主題類別</text></g><text fill="#FFFFFF" font-family="Century Gothic,Century Gothic_MSFontService,sans-serif" font-weight="700" font-size="24" transform="translate(157.334 143)">Topic</text><g clip-path="url(#clip3)"><text fill="#FFFFFF" font-family="Microsoft JhengHei,Microsoft JhengHei_MSFontService,sans-serif" font-weight="700" font-size="24" transform="translate(333.14 143)">內容建議或自選</text></g><text fill="#FFFFFF" font-family="Century Gothic,Century Gothic_MSFontService,sans-serif" font-weight="700" font-size="24" transform="translate(507.807 143)">Theme by suggestion or by choice</text><g clip-path="url(#clip4)"><text font-family="Microsoft JhengHei,Microsoft JhengHei_MSFontService,sans-serif" font-weight="700" font-size="24" transform="translate(48.001 181)">語言</text></g><text font-family="Microsoft JhengHei,Microsoft JhengHei_MSFontService,sans-serif" font-weight="400" font-size="24" transform="translate(96.0011 181)">是我們的星圖</text><g clip-path="url(#clip5)"><text font-family="Century Gothic,Century Gothic_MSFontService,sans-serif" font-weight="400" font-size="24" transform="translate(48.001 210)">Language</text></g><g clip-path="url(#clip6)"><text font-family="Microsoft JhengHei,Microsoft JhengHei_MSFontService,sans-serif" font-weight="400" font-size="24" transform="translate(333.14 181)">振奮人心的語言教育故事（不限通用語、本土語言、母語或英語）、音樂、戲劇</text></g><g clip-path="url(#clip7)"><text font-family="Century Gothic,Century Gothic_MSFontService,sans-serif" font-weight="400" font-size="24" transform="translate(333.14 210)">Stories about language education, music, theater or drama</text></g><g clip-path="url(#clip8)"><text font-family="Microsoft JhengHei,Microsoft JhengHei_MSFontService,sans-serif" font-weight="700" font-size="24" transform="translate(48.001 265)">邏輯</text></g><text font-family="Microsoft JhengHei,Microsoft JhengHei_MSFontService,sans-serif" font-weight="400" font-size="24" transform="translate(96.0011 265)">、科學與公平</text><g clip-path="url(#clip9)"><text font-family="Century Gothic,Century Gothic_MSFontService,sans-serif" font-weight="400" font-size="24" transform="translate(48.001 294)">Logic, science and</text></g><g clip-path="url(#clip10)"><text font-family="Century Gothic,Century Gothic_MSFontService,sans-serif" font-weight="400" font-size="24" transform="translate(48.001 323)">justice</text></g><g clip-path="url(#clip11)"><text font-family="Microsoft JhengHei,Microsoft JhengHei_MSFontService,sans-serif" font-weight="400" font-size="24" transform="translate(333.14 265)">振奮人心的自然與社會科學教育故事（廣泛運用於世間的邏輯教育、公民思辨教育、</text></g><g clip-path="url(#clip12)"><text font-family="Microsoft JhengHei,Microsoft JhengHei_MSFontService,sans-serif" font-weight="400" font-size="24" transform="translate(333.14 294)">社會公平運動</text></g><text font-family="Century Gothic,Century Gothic_MSFontService,sans-serif" font-weight="400" font-size="24" transform="translate(477.14 294)">──</text><text font-family="Microsoft JhengHei,Microsoft JhengHei_MSFontService,sans-serif" font-weight="400" font-size="24" transform="translate(511.473 294)">性與性別、勞資關係、族群關係、對抗歧視；動物照護、生命權）</text><g clip-path="url(#clip13)"><text font-family="Century Gothic,Century Gothic_MSFontService,sans-serif" font-weight="400" font-size="24" transform="translate(333.14 323)">Stories about natural or social science education, literacy cultivation, justice</text></g><g clip-path="url(#clip14)"><text font-family="Century Gothic,Century Gothic_MSFontService,sans-serif" font-weight="400" font-size="24" transform="translate(333.14 352)">cultivation</text></g><g clip-path="url(#clip15)"><text font-family="Microsoft JhengHei,Microsoft JhengHei_MSFontService,sans-serif" font-weight="700" font-size="24" transform="translate(48.001 398)">科技</text></g><text font-family="Microsoft JhengHei,Microsoft JhengHei_MSFontService,sans-serif" font-weight="400" font-size="24" transform="translate(96.0011 398)">為生命服務</text><g clip-path="url(#clip16)"><text font-family="Century Gothic,Century Gothic_MSFontService,sans-serif" font-weight="400" font-size="24" transform="translate(48.001 427)">Technology</text></g><g clip-path="url(#clip17)"><text font-family="Microsoft JhengHei,Microsoft JhengHei_MSFontService,sans-serif" font-weight="400" font-size="24" transform="translate(333.14 398)">振奮人心的科技實踐故事（農林漁牧、冷鍊包裝物流管理、訊息傳遞、雜訊控制、資</text></g><g clip-path="url(#clip18)"><text font-family="Microsoft JhengHei,Microsoft JhengHei_MSFontService,sans-serif" font-weight="400" font-size="24" transform="translate(333.14 427)">訊科技、解決數位落差資訊落差方案等）</text></g><g clip-path="url(#clip19)"><text font-family="Century Gothic,Century Gothic_MSFontService,sans-serif" font-weight="400" font-size="24" transform="translate(333.14 456)">Stories about technology, logistics, communication technology, shortening</text></g><g clip-path="url(#clip20)"><text font-family="Century Gothic,Century Gothic_MSFontService,sans-serif" font-weight="400" font-size="24" transform="translate(333.14 485)">digital and information divide</text></g><g clip-path="url(#clip21)"><text font-family="Microsoft JhengHei,Microsoft JhengHei_MSFontService,sans-serif" font-weight="700" font-size="24" transform="translate(48.001 523)">醫藥</text></g><text font-family="Microsoft JhengHei,Microsoft JhengHei_MSFontService,sans-serif" font-weight="400" font-size="24" transform="translate(96.0011 523)">與健康管理</text><g clip-path="url(#clip22)"><text font-family="Century Gothic,Century Gothic_MSFontService,sans-serif" font-weight="400" font-size="24" transform="translate(48.001 552)">Medicine and health</text></g><g clip-path="url(#clip23)"><text font-family="Microsoft JhengHei,Microsoft JhengHei_MSFontService,sans-serif" font-weight="400" font-size="24" transform="translate(333.14 523)">振奮人心的醫藥或健康管理故事（老人與幼兒照護、身心挑戰人士在地就業、身心挑</text></g><g clip-path="url(#clip24)"><text font-family="Microsoft JhengHei,Microsoft JhengHei_MSFontService,sans-serif" font-weight="400" font-size="24" transform="translate(333.14 552)">戰人士獨立工具）</text></g><g clip-path="url(#clip25)"><text font-family="Century Gothic,Century Gothic_MSFontService,sans-serif" font-weight="400" font-size="24" transform="translate(333.14 581)">Stories about medicine, healing, and assistance to challenging people</text></g><g clip-path="url(#clip26)"><text font-family="Microsoft JhengHei,Microsoft JhengHei_MSFontService,sans-serif" font-weight="400" font-size="24" transform="translate(48.001 631)">身心</text></g><text font-family="Microsoft JhengHei,Microsoft JhengHei_MSFontService,sans-serif" font-weight="700" font-size="24" transform="translate(96.0011 631)">安頓</text><g clip-path="url(#clip27)"><text font-family="Century Gothic,Century Gothic_MSFontService,sans-serif" font-weight="400" font-size="24" transform="translate(48.001 660)">Heart and ethics</text></g><g clip-path="url(#clip28)"><text font-family="Microsoft JhengHei,Microsoft JhengHei_MSFontService,sans-serif" font-weight="400" font-size="24" transform="translate(333.14 631)">生命教育、倫理教育、道德教育</text></g><g clip-path="url(#clip29)"><text font-family="Century Gothic,Century Gothic_MSFontService,sans-serif" font-weight="400" font-size="24" transform="translate(333.14 660)">Life education, ethics education, moral education</text></g><path d="M405.608 33.6827 874.942 33.6827 874.942 90.6827 405.608 90.6827Z" fill="#FFFF00" fill-rule="evenodd"/><text font-family="Microsoft JhengHei,Microsoft JhengHei_MSFontService,sans-serif" font-weight="400" font-size="43" transform="translate(405.608 81)">下課前完成小組主題選擇</text></g></svg>